<?xml version="1.0" encoding="utf-8"?>
<!-- Generator: Adobe Illustrator 26.2.1, SVG Export Plug-In . SVG Version: 6.00 Build 0)  -->
<svg version="1.1" id="Layer_1" xmlns="http://www.w3.org/2000/svg" xmlns:xlink="http://www.w3.org/1999/xlink" x="0px" y="0px"
	 viewBox="0 0 56.7 56.7" style="enable-background:new 0 0 56.7 56.7;" xml:space="preserve">
<style type="text/css">
	.st0{fill-rule:evenodd;clip-rule:evenodd;}
</style>
<path class="st0" d="M28.2,5c13.6,0,24.7,11.1,24.7,24.7S41.8,54.4,28.2,54.4S3.5,43.3,3.5,29.7S14.5,5,28.2,5z M43,22.3
	c-0.4-1.3-1.4-2.4-2.7-2.7c-2.4-0.6-12.1-0.6-12.1-0.6s-9.7,0-12.1,0.6c-1.3,0.4-2.4,1.4-2.7,2.7c-0.6,2.4-0.6,7.4-0.6,7.4
	s0,5,0.6,7.4c0.4,1.3,1.4,2.4,2.7,2.7c2.4,0.6,12.1,0.6,12.1,0.6s9.7,0,12.1-0.6c1.3-0.4,2.4-1.4,2.7-2.7c0.6-2.4,0.6-7.4,0.6-7.4
	S43.6,24.7,43,22.3L43,22.3z M25.1,34.3v-9.3l8,4.6L25.1,34.3L25.1,34.3z"/>
</svg>
